<?xml version="1.0" encoding="UTF-8" standalone="no"?>
<svg
   xmlns:dc="http://purl.org/dc/elements/1.1/"
   xmlns:cc="http://creativecommons.org/ns#"
   xmlns:rdf="http://www.w3.org/1999/02/22-rdf-syntax-ns#"
   xmlns:svg="http://www.w3.org/2000/svg"
   xmlns="http://www.w3.org/2000/svg"
   id="svg8"
   version="1.1"
   viewBox="0 0 1000 1000"
   height="1000"
   width="1000">
  <defs
     id="defs2" />
  <metadata
     id="metadata5">
    <rdf:RDF>
      <cc:Work
         rdf:about="">
        <dc:format>image/svg+xml</dc:format>
        <dc:type
           rdf:resource="http://purl.org/dc/dcmitype/StillImage" />
        <dc:title></dc:title>
      </cc:Work>
    </rdf:RDF>
  </metadata>
  <g
     transform="translate(0,-122.51965)"
     id="layer1">
    <path
       id="path47"
       d="m 935.35004,238.30854 c -0.7905,-0.005 -1.9262,0.27838 -3.4746,0.89063 -8.2581,3.2653 -28.23152,15.94032 -57.61523,26.69531 -29.38371,10.75498 -68.18069,19.58894 -103.51758,28.03906 -35.33689,8.45011 -67.21824,16.51846 -93.72071,29.76953 -26.50245,13.25108 -47.63052,31.68936 -64.14648,49.9336 -16.51596,18.24425 -28.42272,36.2972 -38.02539,61.83984 -9.60266,25.54263 -16.90028,58.57843 -23.5957,84.57813 -6.69542,25.99969 -12.79266,44.97205 -17.12891,57.84961 -4.33624,12.87758 -6.92284,19.68298 -8.3457,23.34179 -1.42287,3.65883 -1.69206,4.19968 -5.5625,2.63867 -3.87043,-1.56101 -11.3418,-5.22686 -22.61328,-11.33789 -11.27149,-6.11104 -26.34597,-14.66546 -38.5,-21.79492 -12.15403,-7.12945 -21.38762,-12.83224 -31.91211,-19.21484 -10.52449,-6.38259 -22.33954,-13.44555 -32.93164,-18.94531 -10.59209,-5.49975 -19.96338,-9.43943 -26.88868,-12.29102 -6.92529,-2.8516 -11.4074,-4.61723 -16.70312,-5.77148 -5.29572,-1.15424 -11.40725,-1.69611 -19.89453,-2.10352 -8.48728,-0.4074 -19.35236,-0.68131 -32.72852,-1.49609 -13.37617,-0.81477 -29.2672,-2.17162 -41.28515,-4.14063 -12.01795,-1.96901 -20.16562,-4.55079 -25.59766,-6.85937 -5.43205,-2.3086 -8.14891,-4.34375 -7.94531,-2.91797 0.20362,1.42577 3.32789,6.31385 8.28515,10.04883 4.95725,3.73499 11.74583,6.31344 17.04297,7.94336 5.29713,1.62986 9.1005,2.31104 9.16797,2.92187 0.0675,0.61084 -3.59941,1.15383 -12.22266,2.24023 -8.62326,1.08641 -22.20352,2.71403 -38.09179,6.04102 -15.88827,3.32697 -34.08816,8.35361 -49.90821,14.66797 -15.82004,6.31436 -29.26643,13.9192 -41.14843,22.40625 -11.882,8.48705 -22.204287,17.85896 -30.623047,25.1914 -8.41877,7.3325 -14.9371,12.62989 -22.60938,17.6543 -7.67227,5.02441 -16.50075,9.77784 -25.1914,13.58008 -8.69065,3.80222 -17.248772,6.6546 -19.875001,9.06445 -2.62623,2.40986 0.679152,4.37655 7.373051,5.40821 6.69389,1.03166 16.77603,1.12971 28.01171,-0.79102 11.23569,-1.92072 23.62294,-5.8575 38.02735,-11.2832 14.404387,-5.42569 30.821317,-12.34028 42.585937,-17.81446 11.76463,-5.47418 18.86739,-9.50564 24.24609,-12.29101 5.3787,-2.78537 9.02706,-4.3207 11.76367,-4.56055 2.73661,-0.23984 4.56242,0.81578 3.07422,2.92774 -1.4882,2.11194 -6.28918,5.28112 -16.17969,11.81054 -9.8905,6.52965 -24.87169,16.42192 -38.55469,25.25586 -13.68299,8.83394 -26.072927,16.6128 -40.812497,25.54297 -14.73962,8.93018 -31.83816,19.0162 -42.01367,24.91992 -10.17551,5.90372 -13.440448,7.63168 -12.144528,8.97657 1.29592,1.34489 7.151748,2.30475 13.826168,2.30468 6.67443,-7e-5 14.16332,-0.9598 23.23828,-3.55273 9.07497,-2.59293 19.73265,-6.81685 30.82422,-12.38672 11.091577,-5.56986 22.613117,-12.48396 33.800787,-19.73437 11.18765,-7.25041 22.03668,-14.83486 29.57617,-20.35743 7.53948,-5.52257 11.76392,-8.97683 15.26953,-10.60937 3.50561,-1.63255 6.29246,-1.43923 7.01172,-0.43164 0.71925,1.0076 -0.626,2.83009 -3.89063,6.04687 -3.26463,3.21679 -8.45066,7.82672 -17.38086,15.55664 -8.93021,7.72991 -21.60635,18.58311 -34.28125,29.4336 -12.6749,10.85049 -25.350957,21.70248 -36.537107,30.48828 -11.18637,8.7858 -20.88923,15.51012 -27.36914,19.83008 -6.47992,4.31997 -9.74503,6.23892 -8.20898,7.34375 1.53604,1.10484 7.87227,1.39289 14.88281,0.48046 7.01054,-0.91241 14.69136,-3.02546 22.66211,-6.38671 7.97076,-3.36125 16.228037,-7.96714 26.119137,-14.44922 9.89109,-6.48209 21.41374,-14.83604 30.53711,-22.13477 9.12337,-7.29875 15.84455,-13.53845 21.46289,-18.72461 5.61835,-5.18616 10.12762,-9.31458 14.01758,-11.76367 3.88997,-2.44908 7.15572,-3.21792 9.50781,-2.92969 2.35211,0.28823 3.79268,1.6325 2.64063,4.56055 -1.15205,2.92805 -4.89769,7.44274 -12.43555,15.79688 -7.53786,8.3541 -18.86941,20.5507 -29.43164,31.20898 -10.56222,10.65827 -20.35903,19.78187 -29.38477,27.60742 -9.02575,7.82555 -17.28937,14.36084 -22.232417,18.58399 -4.94304,4.22315 -6.57401,6.1405 -6.23828,7.34179 0.33574,1.20131 2.6404,1.68192 7.82617,1.34571 5.185757,-0.33623 13.250047,-1.489 22.373047,-5.23438 9.12299,-3.74539 19.30076,-10.08046 29.33594,-17.95508 10.03524,-7.87462 19.92524,-17.28425 27.99218,-25.44726 8.06694,-8.16301 14.30375,-15.07373 18.29102,-19.20508 3.98725,-4.13134 5.71707,-5.47479 6.48437,-4.89844 0.76728,0.57634 0.57493,3.07231 -1.77734,7.77735 -2.35228,4.70501 -6.86496,11.62036 -13.1543,19.49414 -6.28934,7.87378 -14.3593,16.7102 -21.56054,24.10351 -7.20124,7.39331 -13.53938,13.34966 -17.71485,17.28516 -4.17546,3.93549 -6.19298,5.85422 -3.07226,6.62304 3.12074,0.76881 11.37714,0.3857 19.82812,-2.11132 8.45098,-2.49701 17.09207,-7.10374 23.71875,-11.76172 6.62667,-4.65798 11.23421,-9.36251 15.17188,-13.73242 3.93768,-4.3699 7.19978,-8.39914 9.50586,-10.46485 2.30607,-2.0657 3.65033,-2.16105 2.59375,0.0469 -1.05658,2.20807 -4.51418,6.7209 -7.63477,11.76172 -3.12059,5.04083 -5.90589,10.612 -7.92187,14.83593 -2.01599,4.22393 -3.26464,7.10446 0.7207,7.77735 3.98532,0.67291 13.20185,-0.86104 20.21289,-3.40625 7.01104,-2.54524 11.8116,-6.09822 17.18945,-10.75586 5.37783,-4.65769 11.3291,-10.41872 15.74414,-15.51563 4.41504,-5.09689 7.28841,-9.52478 9.40625,-12.38672 2.11784,-2.86194 3.47833,-4.15134 3.51172,-3.77734 0.0334,0.37372 -1.2571,2.41025 -2.88672,6.14453 -1.62963,3.73429 -3.59958,9.16842 -5.02539,14.49805 -1.42583,5.32963 -2.31138,10.5601 -2.71875,14.87109 -0.40739,4.31099 -0.33861,7.70388 2.6836,8.79102 3.02221,1.08714 8.99475,-0.13462 13.71484,-2.07031 4.72009,-1.93571 8.18332,-4.58353 11.64648,-8.48829 3.46317,-3.90476 6.92529,-9.06312 10.49024,-15.58203 3.56496,-6.51891 7.22885,-14.38787 9.53906,-19.07617 2.31021,-4.68835 3.26167,-6.1866 3.46485,-5.98242 0.20319,0.20418 -0.34192,2.10714 -1.22461,5.94336 -0.88271,3.8362 -2.10227,9.60848 -2.78125,14.73437 -0.67897,5.12589 -0.81579,9.60874 -0.30664,13.10547 0.11304,0.77636 0.26041,1.49649 0.42578,2.17383 6.97888,-26.32516 21.21769,-36.9125 26.33203,-38.51758 1.30176,-0.40854 3.61132,-0.94708 3.98242,0.94531 0.3711,1.89239 -0.87936,5.43515 -2.73242,8.58399 -1.85306,3.14885 -4.31045,5.90463 -6.04492,8.37305 -1.73447,2.46841 -2.74475,4.64934 -2.95508,6.30078 -0.21034,1.65143 0.38082,2.77289 -0.48828,4.14257 -0.8691,1.36969 -3.20142,2.98834 -5.60938,5.31641 -2.40796,2.32807 -4.89497,5.3682 -6.59765,7.83008 -1.70268,2.46189 -2.62389,4.35022 -3.40625,6.16797 -0.33384,0.77564 -0.64943,1.52936 -0.99024,2.24609 -0.31855,0.81855 -0.63604,1.6885 -0.89648,2.63086 -0.71301,2.57986 -0.98682,5.50103 -0.78321,9.09961 0.20361,3.59859 0.88261,7.87645 2.75,11.33984 1.86739,3.46349 4.92179,6.1095 6.99414,7.57032 2.07233,1.46082 3.15827,1.7335 3.25977,0.98632 0.10148,-0.74716 -0.77921,-2.51216 -1.28906,-3.66796 -0.50984,-1.15566 -0.64503,-1.69722 1.12109,-2.85157 1.76612,-1.15434 5.43005,-2.91942 8.87305,-5.02734 3.44299,-2.10793 6.66092,-4.55702 9.2793,-6.31055 2.61838,-1.75355 4.63497,-2.80883 8.9082,-3.38476 4.27324,-0.57592 10.80098,-0.67121 17.85937,-0.86328 7.05841,-0.19207 14.64111,-0.48084 20.35547,-0.38477 5.71436,0.0961 9.55662,0.57743 13.92578,1.92188 4.36917,1.34443 9.26567,3.55094 13.6836,4.60742 4.41817,1.05646 8.35379,0.961 12.62695,1.77734 4.27316,0.81633 8.88201,2.54433 14.93164,5.61719 6.04962,3.07286 13.54146,7.49096 19.0625,12.91601 5.52105,5.42509 9.0734,11.85997 10.51367,18.62891 1.44026,6.76895 0.76658,13.87753 -0.76953,20.07031 -1.53611,6.19278 -3.93553,11.47551 -5.08789,16.56446 -1.15236,5.08896 -1.05727,9.98708 -2.44922,14.35547 -1.39194,4.36838 -4.27357,8.209 -7.78125,11.61328 -3.50769,3.40429 -7.64403,6.37468 -11.8164,7.79101 -4.17238,1.41633 -8.38352,1.2803 -11.84571,1.14453 -2.69423,-0.10565 -4.94448,-0.22101 -7.375,-0.64648 -0.31715,-0.83377 -0.94101,-2.29017 -2.24414,-3.82813 -1.33184,-1.57182 -3.37237,-3.22974 -5.47265,-4.25 -2.10028,-1.02027 -4.26151,-1.4053 -6.24219,-1.27343 -1.98068,0.13186 -3.78252,0.77877 -5.35547,1.61914 -0.0633,0.0338 -0.11903,0.0729 -0.18164,0.10742 -0.0387,-0.0595 -0.0715,-0.12317 -0.11133,-0.18164 -0.95892,-1.40857 -2.23247,-2.51329 -3.83594,-3.20899 -1.60347,-0.6957 -3.53936,-0.98515 -5.5332,-0.90039 -1.99384,0.0848 -4.04851,0.54349 -5.7793,1.47657 -1.55515,0.83839 -2.84361,2.06478 -3.96484,3.32617 -1.12308,-1.75051 -2.76154,-3.89092 -4.63672,-5.47852 -2.11219,-1.78825 -4.48669,-2.8451 -6.94726,-3.19336 -2.46058,-0.34824 -5.00427,0.013 -7.11719,0.625 -2.11293,0.61212 -3.79383,1.47558 -4.97071,2.58008 -1.10414,1.03621 -1.75193,2.27945 -2.13671,3.4707 -0.15638,-0.35428 -0.31732,-0.70455 -0.47852,-1.02343 -0.78091,-1.5448 -1.4932,-2.5634 -2.5625,-3.6836 -1.0693,-1.12019 -2.4957,-2.34334 -4.27734,-3.03906 -1.78164,-0.69571 -3.92336,-0.86583 -5.80664,-0.56055 -1.88328,0.30529 -3.51288,1.08713 -4.85352,2.25782 -1.34064,1.17069 -2.39438,2.73377 -2.88672,4.24414 -0.49236,1.51036 -0.42476,2.97173 -0.28906,3.87109 0.13571,0.89937 0.33914,1.23777 0.66211,0.83008 0.32297,-0.4077 0.76382,-1.56162 1.44336,-2.59766 0.67954,-1.03603 1.59505,-1.94989 2.85156,-2.45898 1.25652,-0.50908 2.85202,-0.61199 4.39648,-0.1875 1.54448,0.4245 3.04008,1.37629 4.21094,2.66601 0.97457,1.07348 1.71177,2.34725 2.41602,3.49024 -0.20791,0.18305 -0.40963,0.37689 -0.60156,0.58203 -1.969,2.10432 -3.05437,5.36274 -1.56055,7.74023 1.49383,2.37751 5.56378,3.87047 8.34961,4.07422 2.78584,0.20376 4.28041,-0.88143 6.11328,-0.60937 1.83287,0.27205 4.00583,1.89978 6.72266,2.71484 2.71681,0.815 5.97546,0.81525 8.01171,1.22266 2.0365,0.4074 2.85048,1.22307 1.01758,1.5625 -1.83292,0.33942 -6.31503,0.20264 -9.98047,0.67773 -0.43024,0.0558 -0.84543,0.12194 -1.25195,0.19531 -0.58773,-0.67797 -1.41051,-1.29129 -2.29687,-1.75781 -1.61195,-0.8484 -3.41091,-1.22111 -5.44727,-1.28906 -2.03642,-0.0679 -4.31191,0.17156 -6.19531,0.91797 -1.8834,0.7464 -3.38048,2.00212 -4.51758,3.52929 -1.13711,1.52718 -1.9177,3.32706 -1.91797,5.2793 -2.8e-4,1.95224 0.77886,4.05434 1.33984,5.19336 0.56098,1.13903 0.90025,1.30709 1.00196,0.64453 0.10168,-0.66255 -0.0325,-2.15209 0.27343,-3.54492 0.30589,-1.39282 1.05263,-2.6823 2.2754,-3.58203 1.22275,-0.89973 2.91968,-1.40941 4.7871,-1.49414 1.29393,-0.0587 2.66038,0.0919 3.90821,0.3164 -0.81816,2.12608 -0.35535,4.8965 1.11523,6.1836 1.63034,1.42695 4.48098,1.02068 8.08008,0.61328 3.5991,-0.40746 7.94473,-0.81433 12.83398,-1.08594 4.88926,-0.2716 10.31943,-0.40883 13.375,-0.20508 3.05558,0.20376 3.73346,0.74795 1.96875,1.83399 -1.76497,1.08603 -5.97408,2.71591 -7.67187,5.43164 -1.6978,2.71572 -0.88346,6.51667 1.96875,9.09765 1.18947,1.0763 2.73695,1.92748 4.36328,2.56836 -0.45355,0.60398 -0.93992,1.17897 -1.49219,1.66602 -2.1087,1.85963 -5.12777,2.45664 -8.1289,2.2168 -3.00113,-0.23984 -5.98554,-1.31961 -8.3418,-3.08399 -2.35625,-1.76438 -4.08342,-4.21231 -5.52344,-5.82031 -1.44002,-1.608 -2.59265,-2.37585 -2.30468,-0.43164 0.28791,1.9442 2.01623,6.59994 5.18554,9.9375 3.1693,3.33755 7.77626,5.35402 11.97852,5.90625 4.20225,0.55222 7.99576,-0.35794 10.78125,-2.03906 2.78549,-1.68112 4.55956,-4.12883 5.66406,-6.41016 0.11747,-0.24264 0.22277,-0.48455 0.32422,-0.72266 2.1479,-0.40186 3.38466,-1.67834 4.60547,-3.78711 1.49376,-2.58059 2.98839,-6.38016 4.82226,-9.57226 1.83387,-3.19209 4.00465,-5.77096 5.97461,-7.19727 1.96996,-1.4263 3.73595,-1.70039 3.59961,-0.20703 -0.13633,1.49335 -2.17302,4.75374 -1.49414,6.04492 0.67887,1.29118 4.07275,0.61058 7.12891,0.20313 3.05615,-0.40745 5.77531,-0.5416 7.26758,-0.0664 1.49226,0.47502 1.76256,1.5604 -0.61329,2.98633 -2.37584,1.42593 -7.40245,3.19384 -10.79687,5.77344 -3.39441,2.5795 -5.15861,5.97299 -3.80078,8.75781 0.92473,1.8966 3.29694,3.49719 5.70312,4.6543 -0.77509,0.92858 -1.60697,1.86712 -2.72265,2.75976 -1.80122,1.44116 -4.29476,2.73489 -6.74414,3.35938 -2.44938,0.62449 -4.85122,0.57776 -6.72461,-0.45508 -1.87339,-1.03284 -3.21642,-3.04846 -4.05664,-4.70508 -0.84023,-1.65661 -1.17642,-2.95447 -1.48829,-2.78711 -0.3118,0.16736 -0.63332,2.73723 -0.39453,4.08399 0.53293,3.00562 1.69292,6.21284 3.96094,8.25586 2.43063,2.18951 5.97399,3.1587 9.24219,3.30273 3.31237,0.14598 6.77106,-0.82215 9.625,-2.50976 2.32313,-1.37373 4.02747,-3.66233 5.56445,-5.88086 0.79634,-1.14953 1.32458,-2.65571 1.83985,-3.77149 0.91417,-0.29587 1.857,-0.8376 2.96679,-1.68945 2.91989,-2.24123 6.99027,-6.58487 10.23438,-10.43164 3.24412,-3.84678 5.65894,-7.19383 8.97851,-10.01953 3.31957,-2.82568 7.54353,-5.13016 11.09571,-4.26563 3.55218,0.86453 6.43413,4.89846 8.64257,10.85156 2.20845,5.95314 3.74369,13.82889 5.0879,19.58985 1.3442,5.76094 2.49776,9.40953 4.70703,8.92969 2.20928,-0.47994 5.47316,-5.08894 8.64257,-9.21875 3.16942,-4.12981 6.24155,-7.77679 11.61914,-9.2168 5.37766,-1.44 13.06017,-0.67396 22.2793,-2.30664 9.21912,-1.63268 19.96985,-5.66361 28.70899,-10.84961 8.73916,-5.18601 15.46036,-11.52473 19.68554,-19.11133 4.22519,-7.58658 5.95478,-16.41758 6.62696,-23.9082 0.67217,-7.49064 0.28876,-13.63699 3.16992,-15.94141 2.88116,-2.30442 9.02624,-0.76692 13.05859,3.8418 4.03234,4.60873 5.95381,12.29375 6.91406,20.93555 0.96025,8.64178 0.96036,18.24195 2.88086,25.15624 1.9205,6.91433 5.76099,11.13853 12.09961,12.29102 6.33863,1.1525 15.17403,-0.76873 20.16602,0.76758 4.992,1.53632 6.14378,6.53213 10.94531,11.91016 4.80153,5.37797 13.24858,11.13679 19.58789,13.82617 6.33931,2.68937 10.56591,2.30541 14.40625,4.41797 3.84034,2.11255 7.29633,6.72216 13.82617,14.40429 6.52979,7.68214 16.1291,18.43321 22.27735,22.66016 6.14826,4.22693 8.83821,1.92213 10.75781,2.30664 1.91962,0.38452 3.07278,3.45738 10.37109,8.45117 7.29831,4.99381 20.73756,11.90571 26.11524,10.94531 5.37767,-0.9605 2.69066,-9.79416 0.002,-18.6289 -2.68884,-8.83475 -5.37822,-17.66821 -2.11328,-15.36328 3.26493,2.30492 12.48176,15.74371 20.35742,21.89062 7.87567,6.14696 14.40487,4.99612 15.55664,-0.18945 1.15177,-5.18558 -3.07026,-14.40422 -6.52734,-21.31836 -3.45707,-6.91414 -6.14915,-11.5236 -4.22852,-10.94727 1.92065,0.57633 8.45072,6.33873 14.98047,12.48438 6.52974,6.14565 13.05874,12.67482 19.78125,16.90039 6.72252,4.22559 13.63633,6.14477 15.55664,2.6875 1.9203,-3.45728 -1.15179,-12.29067 -4.80078,-19.39649 -3.64898,-7.10582 -7.87311,-12.48246 -7.87305,-13.63476 5e-5,-1.15229 4.22514,1.92052 10.3711,5.18555 6.14598,3.26502 14.20983,6.72228 18.43554,5.76171 4.22579,-0.96057 4.61055,-6.34066 0.76954,-12.10156 -3.84102,-5.76092 -11.90819,-11.90494 -17.66993,-16.89844 -5.76174,-4.99349 -9.21813,-8.83467 -6.52929,-8.0664 2.68885,0.76826 11.52292,6.1444 20.74218,9.02539 9.21934,2.881 18.81984,3.26466 23.04493,-0.96094 4.22507,-4.2256 3.07266,-13.05999 -3.45703,-22.66211 -6.52968,-9.60211 -18.43385,-19.97164 -24.96485,-26.31055 -6.531,-6.33891 -7.68384,-8.64215 -4.22656,-8.25781 3.4573,0.38434 11.52442,3.45697 19.7832,5.76172 8.25879,2.30474 16.70631,3.8416 21.50781,0 4.80148,-3.8416 5.95421,-13.06092 0.96094,-20.74219 -4.99328,-7.68127 -16.1333,-13.82647 -23.04687,-17.85937 -6.91356,-4.0329 -9.60245,-5.95359 -5.37696,-7.49024 4.22548,-1.53665 15.36438,-2.68829 21.89454,-7.49023 6.53015,-4.80193 8.45025,-13.25172 1.72851,-19.97266 -6.72168,-6.72096 -22.08661,-11.7165 -33.22461,-14.78906 -11.138,-3.07257 -18.05187,-4.22497 -15.36328,-6.91406 2.68859,-2.68907 14.97798,-6.91304 25.34961,-12.29102 10.37161,-5.37799 18.82145,-11.90905 17.47656,-17.66992 -1.34488,-5.76088 -12.4855,-10.75525 -25.16015,-12.09961 -12.67465,-1.34436 -26.88968,0.96257 -35.91407,2.30664 -9.02438,1.34406 -12.86418,1.72877 -11.90429,0 0.9599,-1.72878 6.71987,-5.5694 13.25,-10.94726 6.53014,-5.37785 13.82836,-12.29362 17.28515,-20.16797 3.4568,-7.87454 3.07205,-16.70817 -5.18554,-16.51563 -8.25761,0.19253 -24.39093,9.41123 -43.59571,19.01367 -19.20477,9.60245 -41.48452,19.59031 -59.15234,25.92774 -17.66783,6.33742 -30.7285,9.02591 -39.37109,8.83398 -8.64258,-0.19191 -12.86692,-3.26198 -13.44336,-6.33593 -0.57644,-3.07395 2.49551,-6.14618 4.99218,-10.75586 2.49665,-4.60967 4.41794,-10.75702 2.68946,-14.78907 -1.72847,-4.03201 -7.10378,-5.95328 -7.48828,-7.49023 -0.38451,-1.53693 4.22345,-2.68836 8.06445,-7.49023 3.841,-4.80186 6.91496,-13.25036 6.72265,-20.74024 -0.19227,-7.48985 -3.65025,-14.02015 -5.3789,-20.55078 -1.72865,-6.53064 -1.72911,-13.05604 -0.57617,-16.89844 1.15294,-3.84262 3.45722,-4.99569 12.09961,-6.33984 8.64238,-1.34415 23.62096,-2.88034 33.60937,-5.76172 9.9884,-2.88137 14.98099,-7.10691 14.4043,-10.94727 -0.57668,-3.84036 -6.72135,-7.29724 -4.80078,-9.41015 1.92056,-2.11292 11.90499,-2.88052 20.74023,-5.76172 8.83525,-2.8812 16.51744,-7.87327 19.01367,-12.48242 2.49623,-4.60916 -0.19053,-8.83296 2.30664,-11.90625 2.49717,-3.07318 10.17517,-4.99413 14.20899,-7.6836 4.03383,-2.68948 4.41949,-6.14741 0.96289,-8.45117 -3.45661,-2.30379 -10.75495,-3.45498 -13.06055,-6.7207 -2.30559,-3.26571 0.38398,-8.64497 9.79492,-12.67774 9.41095,-4.03278 25.53916,-6.71819 35.91211,-9.5996 10.37295,-2.88144 14.98111,-5.95372 15.55664,-8.83399 0.57553,-2.88026 -2.87985,-5.57088 -9.21679,-5.37891 -6.33694,0.19197 -15.55659,3.26427 -23.23828,4.22461 -7.68169,0.96035 -13.82618,-0.19076 -14.78711,-2.49609 -0.96093,-2.30532 3.2643,-5.76199 11.71484,-8.64258 8.45053,-2.8806 21.12325,-5.18468 33.03125,-8.83398 11.908,-3.64928 23.04734,-8.64404 26.11914,-11.90821 3.07181,-3.26418 -1.92072,-4.79934 -8.83398,-4.60742 -6.91328,0.19192 -15.74938,2.11142 -25.92774,3.83985 -10.17836,1.72843 -21.70166,3.26484 -29.57617,2.30468 -7.87452,-0.96016 -12.09845,-4.41637 -10.17773,-6.52929 1.92074,-2.11292 9.98554,-2.87955 19.97265,-3.83985 9.98712,-0.9603 21.89362,-2.11451 34.76172,-4.61132 12.86809,-2.49685 26.69248,-6.33519 34.18359,-10.94532 7.49111,-4.61011 8.64476,-9.99061 6.14844,-11.91015 -2.49631,-1.91953 -8.64242,-0.38144 -18.6289,1.53906 -9.98648,1.92052 -23.81581,4.22325 -36.29883,4.60742 -12.483,0.38418 -23.61792,-1.152 -28.42188,-3.26562 -4.80396,-2.1136 -3.26639,-4.80191 3.83985,-6.91407 7.10623,-2.11215 19.77933,-3.64705 37.06445,-8.64062 17.28514,-4.99358 39.1787,-13.44314 58.38477,-23.23828 19.20597,-9.79514 35.71837,-20.93291 45.51367,-31.30469 9.7953,-10.37177 12.8721,-19.9798 13.2559,-24.9707 0.3837,-4.99091 -1.9224,-5.37303 -10.5645,0.58007 -8.6421,5.95311 -23.6228,18.24464 -38.98633,27.4629 -15.36351,9.21823 -31.11306,15.36426 -45.90039,20.35742 -14.78734,4.99316 -28.6182,8.83665 -38.98828,10.37304 -10.37007,1.53639 -17.28128,0.76697 -20.35547,-1.73046 -3.07415,-2.49744 -2.30686,-6.7212 9.2168,-10.75391 11.52365,-4.03273 33.80201,-7.87415 55.88867,-16.70899 22.08666,-8.8348 43.97756,-22.66106 60.3027,-36.68164 16.3252,-14.02058 27.0798,-28.23106 33.9942,-39.94726 6.9144,-11.71623 9.9855,-20.93323 11.3301,-27.08008 1.3445,-6.14685 0.9615,-9.21801 -4.0313,-4.80078 -4.9928,4.41724 -14.5971,16.3248 -27.0801,29 -12.4829,12.67512 -27.84883,26.12109 -41.67575,34.95508 -13.8269,8.83399 -26.11939,13.05885 -38.98633,17.09179 -12.86696,4.03295 -26.3116,7.87379 -36.10547,9.41016 -9.79386,1.53637 -15.93874,0.76886 -17.0918,-1.72852 -1.15307,-2.49739 2.68756,-6.72238 14.21094,-10.94726 11.52337,-4.22487 30.72836,-8.44965 49.16602,-16.90039 18.43766,-8.45074 36.10341,-21.12478 51.66019,-35.5293 15.5567,-14.40452 29.0002,-30.5369 36.875,-43.02148 7.8747,-12.48458 10.1792,-21.31163 11.332,-26.69141 1.1528,-5.37976 1.1503,-7.30263 -5.9551,-0.96484 -7.1054,6.33779 -21.3189,20.93655 -33.6094,31.88281 -12.2904,10.94627 -22.66218,18.24385 -36.10543,25.92578 -13.44324,7.68194 -29.96085,15.75041 -44.17187,21.51172 -14.21103,5.76128 -26.11945,9.21948 -35.5293,10.75586 -9.40985,1.53637 -16.32128,1.14907 -19.58789,-0.58008 -3.26661,-1.72915 -2.8812,-4.79987 5.76172,-8.64062 8.64291,-3.84076 25.54164,-8.44972 43.78711,-17.47657 18.24547,-9.02684 37.83154,-22.46879 51.08398,-34.95312 13.25241,-12.48433 20.16548,-24.00622 25.35158,-32.8418 4.2137,-7.17891 7.2848,-12.58301 3.8594,-12.60547 z m -58.85741,43.08008 c 2.96904,0.011 -0.37287,2.94008 -8.01367,7.7793 -8.15019,5.16183 -21.18503,12.49216 -38.0254,20.36914 -16.84037,7.87699 -37.47721,16.29505 -57.0332,24.17187 -19.55599,7.87672 -38.02645,15.21122 -54.45898,23.08789 -16.43247,7.87667 -30.82468,16.29516 -45.76367,30.01172 -14.93899,13.71658 -30.41966,32.72534 -43.18555,56.08399 -12.76589,23.35864 -22.81475,51.0616 -32.72852,80.53125 -9.91376,29.46965 -19.69194,60.70227 -31.91406,84.06054 -12.22212,23.35827 -26.88847,38.83897 -41.96289,50.92578 -15.0744,12.08682 -30.5522,20.77777 -44.13281,28.11133 -3.88362,2.09715 -7.58082,4.05635 -11.04102,5.81641 0.0363,1.59591 -0.0705,3.57363 -0.0703,5.38672 -7e-5,3.74554 0.48053,6.72159 0.14453,10.13086 -0.33601,3.40929 -1.48805,7.24954 -1.10352,7.53711 0.3846,0.28755 2.30458,-2.97616 4.22461,-7.15235 1.92004,-4.17618 3.84243,-9.26722 4.89844,-8.5957 1.05601,0.67151 1.24855,7.10535 0.72071,11.47461 -0.5279,4.36925 -1.7756,6.67361 -0.81446,8.21094 0.96116,1.53734 4.12712,2.30603 7.24805,2.59375 3.12064,0.28798 6.19444,0.0953 5.95508,0.95898 -0.23936,0.86359 -3.79414,2.7849 -6.53125,3.9375 -2.7371,1.15259 -4.65647,1.53553 -3.79102,1.91992 0.86521,0.38441 4.51139,0.76942 7.91992,1.10547 3.40853,0.33605 6.57918,0.62383 6.67578,1.77539 0.0966,1.15157 -2.88197,3.16896 -7.15625,4.75391 -4.27429,1.58495 -9.8424,2.73715 -11.3789,3.8418 -1.53649,1.10465 0.96043,2.16168 4.22461,5.08984 3.2642,2.92815 7.2986,7.72892 9.69922,11.76172 2.40061,4.03281 3.16876,7.29874 1.00781,7.29883 -1.33326,5e-5 -3.71454,-1.20679 -5.63086,-2.16993 3.39032,2.82137 7.04375,5.9958 10.57617,9.08204 9.12254,7.9702 17.38035,15.26909 26.69531,21.12695 9.31496,5.85785 19.6856,10.27609 34.66602,14.69336 14.98043,4.41727 34.57115,8.83492 47.82227,14.98047 5.4042,2.50632 9.73947,5.30674 13.27734,8.48633 3.07644,-0.72381 7.8531,-0.47758 13.54492,0.36328 8.10133,1.19682 18.0454,3.59038 26.60742,8.10156 8.56203,4.51118 15.74402,11.14151 21.72852,18.7832 5.9845,7.6417 10.77274,16.29684 16.11328,22.09766 5.34054,5.80081 11.23242,8.74766 13.07422,10.2207 1.84179,1.47304 -0.36744,1.47175 -6.07813,-0.002 -5.71069,-1.47371 -14.91308,-4.41872 -23.56836,-9.94336 -8.65527,-5.52464 -16.75762,-13.62535 -23.38671,-20.07031 -6.62911,-6.44497 -11.78452,-11.23282 -18.04493,-13.71875 -3.34869,-1.32973 -7.00472,-2.00393 -10.4082,-2.70703 0.5161,1.12053 1.00202,2.27006 1.44922,3.46289 4.14519,11.05654 5.52296,25.29414 8.11328,32.75585 2.59032,7.46178 6.39314,8.14151 12.50391,11.74024 6.11077,3.59873 14.52943,10.11712 22.40625,15.3457 7.87682,5.22857 15.20897,9.16702 24.44336,15.95703 9.23437,6.79003 20.3696,16.43034 27.83984,21.86329 7.47033,5.43294 11.27166,6.65524 12.42578,3.25976 1.15411,-3.39549 -0.34008,-11.40932 2.85156,-13.85352 3.19163,-2.4442 11.06668,0.67783 15.95703,2.51172 4.89036,1.83387 6.79075,2.37916 6.99414,-0.54101 0.2034,-2.92018 -1.28813,-9.30198 2.37891,-11.47461 3.66704,-2.17264 12.48849,-0.1376 18.33008,-0.002 5.84159,0.13577 8.6941,-1.62891 8.42187,-5.36329 -0.27223,-3.73437 -3.66757,-9.43633 -2.10546,-13.10351 1.56211,-3.66718 8.08061,-5.29701 10.11718,-8.2168 2.03657,-2.91981 -0.40829,-7.12989 -2.17382,-12.5625 -1.76558,-5.43259 -2.85246,-12.08521 1.15429,-16.63476 4.00676,-4.54955 13.10577,-6.99371 24.44531,-7.19727 11.33953,-0.20354 24.91963,1.83278 33.81446,4.54883 8.89483,2.71604 13.10579,6.11306 12.29101,6.92773 -0.81478,0.81466 -6.65674,-0.95162 -14.73633,-0.74804 -8.07956,0.20358 -18.40088,2.37622 -22.81445,5.97461 -4.41356,3.59839 -2.91965,8.62292 0.88281,15.27734 3.80247,6.65449 9.91374,14.9399 13.85157,20.98242 3.93783,6.04254 5.70344,9.84569 0.88281,9.30274 -4.82064,-0.54296 -16.23082,-5.43508 -24.10547,-7.60743 -7.87465,-2.17236 -12.21865,-1.62879 -9.97851,3.59961 2.24013,5.2284 11.0673,15.14321 12.6289,18.94532 1.5616,3.80212 -4.14262,1.49196 -9.30273,-0.54493 -5.1601,-2.03689 -9.77718,-3.80053 -8.35157,0.54493 1.42561,4.34547 8.89855,14.8079 11.81641,20.77929 2.91786,5.97139 1.28817,7.46521 -3.26172,4.41016 -4.54991,-3.05503 -12.02068,-10.66044 -18.40234,-14.9375 -6.38167,-4.27708 -11.67837,-5.2275 -14.5293,-4.27734 -2.85108,0.95014 -3.25915,3.8028 -2.03711,8.75976 1.22205,4.95697 4.0739,12.01717 3.46289,13.44336 -0.61099,1.42619 -4.68528,-2.78373 -10.04883,-5.70312 -5.36356,-2.9194 -12.01987,-4.54863 -15.48242,-2.85157 -3.46256,1.69707 -3.73631,6.72262 -3.73633,12.1543 -3e-5,5.43168 0.27348,11.26893 -2.03515,11.54101 -2.30862,0.27211 -7.1987,-5.02318 -13.10547,-8.68945 -5.90677,-3.66625 -12.83086,-5.70316 -20.23242,-10.93164 -7.40156,-5.22849 -15.27971,-13.64798 -23.08789,-19.89453 -7.80819,-6.24653 -15.54885,-10.31996 -23.08594,-15.48047 -7.53708,-5.16049 -14.87226,-11.41007 -22.13672,-14.80469 -7.26446,-3.39463 -14.46095,-3.93742 -19.68945,-5.36328 -5.22852,-1.42587 -8.48804,-3.73429 -10.52539,-9.30273 -2.03734,-5.56857 -2.85214,-14.39364 -4.68555,-23.83203 -1.8334,-9.43838 -4.68534,-19.49042 -11.20313,-26.34766 -5.03822,-5.30045 -12.27346,-8.6879 -19.90624,-11.58594 -0.36772,4.73545 -1.97517,10.00926 -4.2754,14.52149 -2.39335,4.6949 -5.5242,8.56226 -9.39062,11.32422 -3.86642,2.76196 -8.47153,4.41945 -12.33789,5.24804 -3.86636,0.8286 -6.99559,0.82834 -6.99609,0.1836 -5.1e-4,-0.64475 3.12847,-1.93355 6.44335,-4.41993 3.31489,-2.48635 6.81443,-6.16651 9.39258,-10.40234 2.57816,-4.23582 4.23382,-9.02246 5.0625,-13.07422 0.5611,-2.74341 0.75233,-5.14278 1.29688,-7.26758 -2.72367,-0.96028 -5.47357,-1.92903 -8.0918,-2.85156 0.51381,4.49864 -1.05917,9.55895 -3.14844,14.16992 -2.66963,5.89184 -6.16937,11.04961 -10.49609,14.82422 -4.32672,3.77462 -9.48399,6.16768 -13.81055,7.64063 -4.32655,1.47294 -7.82404,2.02618 -7.08789,-0.0918 0.73616,-2.11798 20.39598,-8.76217 19.35938,-30.92774 -0.57862,-12.37259 -12.60851,-15.79304 -14.22461,-16.25195 -2.74633,-0.77986 -3.62584,-0.43838 -5.25586,4.14453 -1.63002,4.5829 -4.00982,13.41189 -7.13281,20.91407 -3.12298,7.50217 -6.99282,13.68204 -11.7793,19.45312 -4.78649,5.77108 -10.49196,11.13565 -15.68555,14.39453 -5.19358,3.2589 -9.8814,4.41553 -12.76562,4.89063 -2.88422,0.47511 -3.9716,0.27072 -2.07032,-1.35938 1.90129,-1.6301 6.78965,-4.68432 11,-8.35156 4.21035,-3.66723 7.74142,-7.94648 11.40821,-13.82031 3.66679,-5.87384 7.46839,-13.33949 10.49023,-20.33399 3.02185,-6.9945 5.25984,-13.51158 6.14258,-18.36718 0.88273,-4.8556 0.4089,-8.04803 -2.91797,-11.30664 -3.32687,-3.25861 -9.50486,-6.58615 -15.03906,-11.27149 -5.53422,-4.68536 -10.42356,-10.72849 -15.58399,-16.5 -4.03069,-4.50801 -8.21757,-8.8503 -11.6582,-13.29492 -0.85203,0.32823 -0.14933,2.10703 -0.75195,3.15234 -0.71977,1.24852 -3.30928,1.44079 -6.04688,1.05664 -2.73761,-0.38417 -5.6194,-1.34407 -6.33984,-0.67187 -0.06,0.0559 -0.10001,0.12857 -0.13281,0.20508 2.12241,1.34146 4.22488,2.75286 6.23242,4.21289 7.39386,5.37739 13.53861,11.33099 16.37109,19.73242 2.83249,8.40145 2.35224,19.25502 0.57617,27.17578 -1.77608,7.92078 -4.84991,12.91482 -6.91406,17.04297 -2.06414,4.12816 -3.12096,7.39351 -4.0332,11.57031 -0.91225,4.17679 -1.68042,9.26943 -3.64844,13.58985 -1.96801,4.32043 -5.1393,7.87464 -7.63476,9.98632 -2.49545,2.11167 -4.31916,2.78553 -3.93555,1.29688 0.3836,-1.48867 2.9772,-5.13817 4.84961,-10.41992 1.87242,-5.28176 3.02406,-12.1939 4.46484,-17.47657 1.4408,-5.28266 3.16836,-8.93082 5.04102,-13.39648 1.87266,-4.46566 3.88743,-9.7454 4.03125,-16.37109 0.14381,-6.62584 -1.58219,-14.59723 -5.03906,-21.22266 -3.45687,-6.62543 -8.6436,-11.9068 -14.54883,-16.17969 -4.0676,-2.94322 -8.42268,-5.36314 -11.95117,-7.16211 0.0282,0.0492 0.0676,0.10583 0.0918,0.15235 0.67279,1.29625 -0.28719,1.48692 -2.88281,0.91015 -2.59564,-0.57678 -6.8156,-1.919 -11.28125,-3.59961 -4.46566,-1.68061 -9.16939,-3.69608 -13.39453,-4.89648 -4.22514,-1.20041 -7.96945,-1.58591 -12.43555,-2.97852 -4.46608,-1.39262 -9.64973,-3.79156 -15.93945,-4.75195 -6.28973,-0.96038 -13.68588,-0.47942 -19.5918,0.0488 -5.90591,0.52815 -10.32045,1.10556 -13.92187,1.3457 -3.60143,0.24015 -6.386,0.14157 -7.00977,-0.29101 -0.62376,-0.43259 0.91185,-1.19881 3.45508,-2.0625 2.54323,-0.86371 6.09979,-1.82674 9.07617,-3.12305 2.97637,-1.29631 5.37703,-2.92801 6.96094,-4.65625 1.5839,-1.72824 2.35153,-3.55258 1.05664,-4.32031 -1.29489,-0.76773 -4.65768,-0.47965 -7.875,0.14453 -3.21733,0.62418 -6.28752,1.58151 -9.69727,2.2539 -3.40975,0.67241 -7.15375,1.05838 -10.03515,0.81836 -2.88142,-0.24004 -4.89908,-1.10492 -6.58008,-3.07422 -1.68098,-1.96927 -3.02386,-5.04078 -4.08008,-7.20117 -1.0562,-2.16038 -1.82346,-3.41008 -2.7832,-4.25 -0.95975,-0.83993 -2.1132,-1.27023 -2.52149,-2.44726 -0.40829,-1.17702 -0.0718,-3.09954 1.91992,-5.95508 1.99181,-2.85555 5.64323,-6.65158 9.67579,-10.08399 4.03257,-3.43239 8.45261,-6.50423 13.78125,-9.3125 5.32865,-2.80826 11.56925,-5.35536 17.90625,-6.77148 6.33699,-1.41613 12.77403,-1.70259 19.27929,-2.30273 6.50526,-0.60015 13.0843,-1.51257 19.68555,-2.88086 6.60125,-1.36831 13.22676,-3.19354 19.41992,-5.49805 6.19316,-2.30449 11.957,-5.08974 17.66992,-8.40234 5.71292,-3.31258 11.38009,-7.15371 13.63672,-8.40235 0.56415,-0.31215 0.9139,-0.46231 1.09766,-0.47656 0.55129,-0.0428 -0.40386,1.13652 -1.62891,2.83008 -1.5015,2.07554 -3.39689,4.91326 -4.51562,7.37305 0.14762,-0.0837 0.23109,-0.13128 0.38476,-0.21876 5.56558,-3.16663 15.17469,-8.93238 26.79297,-16.42187 11.61829,-7.4895 25.25719,-16.70861 37.25977,-30.34375 12.00258,-13.63515 22.37436,-31.68922 30.24804,-52.91016 7.87375,-21.22095 13.2506,-45.61415 19.49219,-69.33203 6.24158,-23.71795 13.34875,-46.76516 23.52735,-69.13867 10.17861,-22.37351 23.42915,-44.07592 39.94531,-62.32031 16.51617,-18.24438 36.29995,-33.03329 57.04101,-44.17188 20.74105,-11.13866 42.44475,-18.62976 69.01368,-25.97265 26.56893,-7.34288 58.00928,-14.5397 79.43164,-20.03907 21.42236,-5.49936 32.83015,-9.30112 36.90429,-9.70898 0.25463,-0.0254 0.4798,-0.0379 0.67774,-0.0371 z m -133.86719,104.5957 c 0.85657,-0.003 1.70908,0.003 2.55469,0.0195 13.52973,0.25778 25.55606,2.93321 34.20117,5.73828 8.64511,2.80509 13.91376,5.74199 11.38281,8.78906 -2.53096,3.04706 -12.86025,6.19947 -27.19726,11.74805 -14.33701,5.54858 -32.67329,13.49 -45.29493,20.4414 -12.62166,6.95139 -19.52373,12.9106 -23.33984,13.11914 -3.8161,0.20855 -4.54863,-5.33307 -0.41992,-10.92187 4.1287,-5.58881 13.12728,-11.23317 19.52539,-14.83594 6.39812,-3.60276 10.20459,-5.17144 7.0918,-6.78516 -3.1128,-1.61372 -13.14354,-3.26814 -22.90235,-2.02734 -9.75882,1.24079 -19.23782,5.37659 -27.16601,8.67969 -7.9282,3.30308 -14.30029,5.76826 -14.51367,3.8789 -0.21345,-1.88935 5.73041,-8.13298 14.25976,-14.48632 8.52935,-6.35334 19.64758,-12.81717 32.72461,-17.12696 12.25972,-4.04043 26.24522,-6.19009 39.09375,-6.23047 z m -9.70312,73.62696 c 5.57252,0.0613 11.11654,0.5694 16.29882,1.49414 10.36457,1.8495 19.28166,5.37341 25.58203,8.58398 6.30037,3.21058 9.9905,6.10824 7.67383,8.14063 -2.31665,2.03239 -10.64041,3.19549 -22.33398,5.70898 -11.69357,2.5135 -26.75405,6.37698 -37.30078,10.17774 -10.54674,3.80077 -16.57357,7.536 -19.53125,7.23046 -2.95769,-0.30553 -2.84677,-4.651 1.00781,-8.4414 3.85459,-3.79042 11.45849,-7.02826 16.81445,-9.01563 5.35594,-1.98736 8.4722,-2.72776 6.27735,-4.34765 -2.19486,-1.6199 -9.70161,-4.1197 -17.35157,-4.35743 -7.64995,-0.23772 -15.43658,1.78514 -21.93164,3.35547 -6.49506,1.57034 -11.69355,2.68679 -11.62695,1.20899 0.0666,-1.4778 5.39532,-5.54992 12.72461,-9.39063 7.32928,-3.84073 16.66211,-7.45057 27.23633,-9.16601 5.28711,-0.8577 10.88839,-1.24296 16.46094,-1.18164 z m -97.06641,6.35351 c 0.22119,0.0371 0.44468,0.21482 0.67383,0.5586 1.6294,2.44462 3.53112,13.30821 3.53125,22.81445 1.5e-4,9.50623 -1.89973,17.6545 -1.22071,24.17383 0.67903,6.51933 3.9359,11.40533 5.15821,18.46679 1.22236,7.06147 0.40883,16.29687 -1.76367,22.40821 -2.17256,6.11134 -5.70237,9.09691 -5.29493,14.12304 0.40746,5.02609 4.75003,12.08701 3.66407,19.14844 -1.08597,7.06143 -7.60362,14.12151 -13.44336,18.875 -5.83973,4.75348 -10.99936,7.19838 -11.81446,11.54492 -0.81511,4.34653 2.71555,10.59185 2.03711,15.20899 -0.67843,4.61713 -5.5672,7.60465 -10.72851,8.6914 -5.16132,1.08675 -10.59281,0.27145 -8.96289,3.53125 1.62993,3.2598 10.32058,10.59379 13.58007,16.56836 3.2595,5.97457 1.0854,10.59081 -5.84179,13.44336 -6.9272,2.85256 -18.60328,3.9379 -26.20899,1.62891 -7.60572,-2.30899 -11.13408,-8.01229 -15.07226,-13.85156 -3.93809,-5.83927 -8.28498,-11.81537 -7.87696,-16.02539 0.40802,-4.21001 5.56797,-6.65406 10.04883,-10.04883 4.48085,-3.39477 8.28398,-7.73889 12.08594,-12.08399 3.80196,-4.3451 7.605,-8.69294 9.77734,-13.17382 2.17234,-4.48088 2.71762,-9.09888 5.4336,-12.08594 2.71597,-2.98706 7.6051,-4.34639 9.77734,-8.69141 2.17225,-4.34504 1.62863,-11.67982 3.66602,-16.56836 2.03737,-4.88854 6.65713,-7.33397 7.8789,-11.54297 1.22178,-4.20901 -0.952,-10.18545 -0.13672,-14.80273 0.81529,-4.61728 4.61713,-7.87583 5.70313,-13.03516 1.086,-5.15932 -0.54485,-12.22322 0.67773,-17.79101 1.22261,-5.56778 5.29683,-9.64348 6.11133,-14.25977 0.8145,-4.6163 -1.62943,-9.77904 -1.35742,-14.39648 0.272,-4.61744 3.2593,-8.69103 5.43164,-13.71485 1.76502,-4.08184 2.99332,-8.79354 4.26563,-9.10547 0.0734,-0.0179 0.14697,-0.0197 0.2207,-0.008 z m 74.05664,49.52539 c 1.16541,-0.008 2.34455,0.0105 3.53516,0.0586 9.52479,0.37961 19.80004,2.63105 28.50976,6.08203 8.70972,3.45096 15.85879,8.10253 20.7832,12.01953 4.9244,3.917 7.6286,7.10155 5.24805,8.46289 -2.38056,1.36132 -9.84393,0.89779 -20.48633,1.01563 -10.64239,0.11776 -24.45938,0.81611 -34.33007,2.25976 -9.87068,1.44366 -15.7896,3.6328 -18.31446,2.8418 -2.52487,-0.791 -1.65644,-4.56207 2.37696,-7.1836 4.0334,-2.62154 11.23893,-4.09783 16.26171,-4.88086 5.02278,-0.78303 7.87071,-0.87398 6.24414,-2.67578 -1.62657,-1.8018 -7.72893,-5.31287 -14.35742,-6.87695 -6.62847,-1.56408 -13.77859,-1.18024 -19.7207,-0.96289 -5.9421,0.21736 -10.67174,0.269 -10.35156,-1.00781 0.32018,-1.27681 5.68951,-3.88447 12.76172,-5.9336 6.18819,-1.79301 13.68203,-3.15944 21.83984,-3.21875 z m -429.99609,8.41016 c 8.28387,-0.0679 18.33322,0.0688 28.92578,2.17383 10.59256,2.10503 21.72784,6.17751 30.55468,11.33789 8.82685,5.16037 15.34493,11.40927 18.60352,17.17969 3.25857,5.77041 3.26063,11.06735 1.15625,13.7832 -2.10439,2.71585 -6.3166,2.85123 -10.11914,2.24023 -3.80238,-0.61098 -7.1962,-1.96732 -9.84375,-0.67773 -2.64756,1.2896 -4.54901,5.22798 -8.01172,6.6543 -3.46269,1.42633 -8.48966,0.3379 -11.47656,1.42382 -2.98687,1.08591 -3.93696,4.34545 -6.17774,4.68555 -2.24079,0.34011 -5.77475,-2.23996 -9.30468,-3.59766 -3.52993,-1.35768 -7.06007,-1.49331 -9.98047,-3.12304 -2.92039,-1.62972 -5.22947,-4.75491 -8.69141,-5.16211 -3.46193,-0.40721 -8.07866,1.89997 -10.93164,1.28906 -2.85299,-0.6109 -3.93845,-4.14071 -6.04297,-6.65234 -2.10453,-2.51165 -5.22773,-4.00508 -6.92578,-7.46875 -1.69804,-3.46368 -1.96975,-8.89935 -3.46289,-11.41016 -1.49315,-2.51074 -4.20886,-2.10322 -7.46875,-4.07226 -3.25987,-1.96907 -7.06233,-6.3133 -5.83984,-9.70899 1.2225,-3.39567 7.46846,-5.83924 13.85156,-7.19727 6.38311,-1.35799 12.9017,-1.6294 21.18555,-1.69726 z m -51.0918,18.61719 c 1.72179,0.0767 1.8052,2.59609 -0.29688,4.91992 -2.10207,2.32382 -6.39193,4.45584 -9.42382,5.78711 -3.03188,1.33137 -4.80928,1.8655 -3.48438,2.72851 1.32489,0.86302 5.75285,2.05312 10.1875,1.93164 4.43464,-0.12149 8.87102,-1.55304 12.57617,-2.68164 3.70514,-1.12861 6.676,-1.95112 6.6875,-1.09375 0.0115,0.85739 -2.93589,3.39268 -7.04687,5.86328 -4.11099,2.4706 -9.38666,4.87783 -15.44727,6.22852 -6.0606,1.35069 -12.90677,1.645 -18.96679,0.92578 -6.06002,-0.71921 -11.33936,-2.45322 -15.09376,-4.09765 -3.75439,-1.64443 -5.98654,-3.19865 -4.71484,-4.45313 1.2717,-1.25447 6.04723,-2.21016 12.72852,-4.06055 6.68129,-1.8504 15.2642,-4.59395 21.23828,-7.15039 5.9741,-2.55642 9.33485,-4.9243 11.05664,-4.84765 z m 148.73242,17.4375 c 14.66657,0.81481 42.77734,46.03704 42.77734,46.03711 0,0 -4.89016,-24.03745 -21.59375,-41.14844 23.22206,6.92587 33.97582,38.37455 37.48243,69.87109 3.50661,31.49652 -8.96283,47.86907 -8.96289,47.86914 0,0 -5.52623,-38.57699 -12.42579,-56.6289 -9.02059,-23.60135 -23.01822,-46.03717 -37.27734,-66 z m 312.70508,3.69336 c 4.0525,0.0152 8.45197,0.41727 12.97266,1.41797 7.23306,1.6011 14.78371,4.738 20.9707,8.57617 6.18698,3.83815 11.01268,8.38097 14.24023,12.05468 3.22754,3.6737 4.85779,6.48165 2.84961,7.19532 -2.00818,0.71365 -7.65222,-0.6685 -15.80859,-2.04297 -8.15637,-1.37446 -18.82176,-2.74392 -26.57031,-2.99805 -7.74858,-0.25414 -12.57607,0.60677 -14.39844,-0.3457 -1.82236,-0.95248 -0.63918,-3.71787 2.80664,-5.16797 3.44583,-1.45011 9.15784,-1.58642 13.10742,-1.49414 3.94958,0.0923 6.14267,0.41255 5.14648,-1.18945 -0.99617,-1.602 -5.18235,-5.12395 -10.0371,-7.23243 -4.85475,-2.10851 -10.37432,-2.80166 -14.94922,-3.45312 -4.57491,-0.65147 -8.1999,-1.26081 -7.7793,-2.19336 0.4206,-0.93253 4.88479,-2.18909 10.57617,-2.7832 2.13428,-0.22279 4.44153,-0.35289 6.87305,-0.34375 z m -445.82422,6.14257 c 2.09706,-0.18541 2.60322,2.85065 0.43359,6.00391 -2.16963,3.15325 -7.01883,6.42746 -10.47461,8.5293 -3.45578,2.10184 -5.52287,3.03439 -3.77929,3.86523 1.74358,0.83083 7.29679,1.55896 12.64648,0.69531 5.34967,-0.86365 10.49123,-3.31609 14.79492,-5.28125 4.3037,-1.96516 7.76747,-3.44051 7.91993,-2.40429 0.15247,1.03622 -3.00381,4.58466 -7.58204,8.24023 -4.57822,3.65557 -10.58145,7.41843 -17.70117,10.0332 -7.11973,2.61465 -15.35904,4.08108 -22.8125,4.18946 -7.45345,0.10837 -14.12611,-1.14101 -18.9375,-2.52539 -4.81138,-1.38438 -7.7667,-2.9044 -6.42969,-4.62891 1.33703,-1.72434 6.96734,-3.65075 14.75782,-6.9707 7.79048,-3.31996 17.73844,-8.03127 24.55859,-12.0918 6.82015,-4.06053 10.5084,-7.4689 12.60547,-7.6543 z m 38.16406,19.75196 c 2.28838,-0.11772 3.27364,3.43135 1.29883,7.58984 -2.10648,4.43574 -7.58359,9.56987 -11.5332,12.93555 -3.9496,3.36568 -6.37962,4.96847 -4.00196,5.66601 2.37765,0.69755 9.56154,0.48938 16.16211,-1.69336 6.60056,-2.18274 12.61456,-6.338 17.66602,-9.70312 5.05145,-3.36512 9.13697,-5.93778 9.54102,-4.65625 0.40401,1.28153 -2.87063,6.41635 -7.92579,11.97851 -5.05517,5.56222 -11.89263,11.55352 -20.3789,16.31446 -8.48629,4.76094 -18.62779,8.29501 -28.04688,9.94922 -9.41909,1.65422 -18.12375,1.42863 -24.5,0.65429 -6.37624,-0.77435 -10.42858,-2.09836 -9.08593,-4.55468 1.34268,-2.45632 8.08109,-6.04308 17.27343,-11.83399 9.19238,-5.79085 20.83589,-13.78301 28.64844,-20.31445 7.81254,-6.53144 11.78961,-11.59615 14.4082,-12.25781 0.16366,-0.0413 0.32205,-0.0664 0.47461,-0.0742 z m 81.33008,6.95508 c 0.16428,-0.0281 0.30518,0.0161 0.41992,0.13867 0.91789,0.98134 0.18436,7.03046 -1.97265,14.23047 -2.15701,7.20001 -5.73632,15.55247 -11.33399,23.51172 -5.59767,7.95924 -13.2173,15.52758 -20.99804,21.08789 -7.7808,5.56012 -15.72912,9.11634 -21.81446,11.17187 -6.08528,2.05553 -10.31216,2.61171 -10.16211,-0.18359 0.15006,-2.7953 4.67713,-8.94166 10.4668,-18.13477 5.78968,-9.19311 12.83913,-21.42814 17.06445,-30.69336 4.22532,-9.2651 5.6252,-15.55351 7.70117,-17.28125 2.07599,-1.72773 4.82976,1.10517 4.84571,6.01563 0.0159,4.91047 -2.70784,11.90701 -4.81641,16.64843 -2.10856,4.74143 -3.60591,7.23372 -1.16015,6.83594 2.44571,-0.3978 8.83525,-3.68834 13.8457,-8.50781 5.01044,-4.81947 8.63763,-11.1621 11.74023,-16.37891 2.71477,-4.56472 5.02384,-8.26484 6.17383,-8.46093 z m 23.52539,124.42187 c -0.18432,0.005 -0.41294,0.0488 -0.6875,0.13867 -2.19648,0.71901 -7.43473,4.34335 -12.9668,5.45703 -5.53208,1.11369 -11.35728,-0.28393 -14.82031,0.22461 -3.46303,0.50853 -4.56577,2.92552 -6.43164,4.60938 -1.86588,1.68386 -4.49503,2.63468 -6.8164,3.1582 -2.32144,0.52352 -4.33334,0.62066 -5.02149,0.99414 -0.68815,0.37348 -0.0536,1.02309 1.68164,1.39258 1.73523,0.3695 4.5683,0.45888 6.62305,1.33984 2.05476,0.88096 3.33109,2.55262 6.03906,3.42578 2.70797,0.87316 6.8421,0.94435 9.65039,-0.0469 2.80828,-0.99127 4.28795,-3.04254 6.97656,-3.8125 2.68859,-0.76996 6.57718,-0.25864 9.87305,-0.90039 3.29588,-0.64175 5.9864,-2.43224 7.52734,-4.5332 1.54093,-2.10097 1.92822,-4.50547 1.11524,-4.96485 -0.81296,-0.45938 -2.82706,1.02866 -4.81055,2.1211 -1.9835,1.09245 -3.93607,1.79031 -5.50781,2.18554 -1.57173,0.39522 -2.76189,0.48566 -2.46875,0.16211 0.29314,-0.32357 2.07071,-1.06135 3.96289,-2.32422 1.89218,-1.26287 3.89235,-3.04558 5.31836,-5.0332 1.24776,-1.73917 2.05391,-3.63005 0.76367,-3.59375 z m 405.90625,38.91016 c 3.19149,0.008 5.21169,0.46604 5.78906,1.31445 1.15474,1.69686 -7.0367,6.0469 -11.20312,7.94531 -8.65293,3.94267 -18.34117,5.17955 -27.72266,6.73047 -9.34676,1.54517 -18.83786,2.23846 -28.30664,2.54102 -7.68807,0.24567 -17.71682,0.20915 -23.06836,-0.5918 -1.16159,-0.17385 -4.6902,-2.16268 1.88867,-2.97656 6.57886,-0.81388 18.81422,-2.30743 31.98633,-5.02344 13.17213,-2.71595 27.29806,-6.6556 37.82227,-8.55664 5.2621,-0.95053 9.62295,-1.39123 12.81445,-1.38281 z m -39.72656,26.4375 c 7.31186,0.14478 15.95985,1.36796 24.33008,2.51172 10.93251,1.49388 21.38855,2.85324 29.26562,4.27929 7.87707,1.42604 13.17456,2.92097 11.81641,4.75391 -1.35816,1.83295 -9.37097,4.00438 -19.14844,4.95508 -9.77746,0.9507 -21.32071,0.68077 -33.20312,-0.88086 -11.88241,-1.56164 -24.11403,-4.4159 -30.49219,-5.97657 -6.37815,-1.5606 -6.9223,-1.83175 -4.61328,-3.59765 2.30902,-1.76591 7.46997,-5.02533 15.7539,-5.83985 1.03549,-0.10179 2.11809,-0.16484 3.24414,-0.19531 0.98528,-0.0267 2.00233,-0.0284 3.04688,-0.008 z m 1.07031,23.60547 c 0.14153,-0.0104 0.33586,10e-6 0.58203,0.0254 1.96935,0.2037 7.26588,1.42398 17.72266,4.34375 10.45679,2.91977 26.07243,7.53763 40.875,12.83398 14.80257,5.29635 28.80271,11.27748 35.17969,14.87305 6.37697,3.59556 5.1543,4.81691 -1.5,4.68164 -6.6543,-0.13527 -18.7401,-1.62873 -30.55469,-4.48047 -11.81459,-2.85175 -23.35925,-7.06161 -33.47656,-12.42578 -10.11732,-5.36417 -18.81034,-11.88296 -23.83399,-15.54883 -4.39564,-3.20764 -5.98483,-4.23312 -4.99414,-4.30273 z m -59.54101,0.0254 c 2.28922,-0.10968 6.18782,0.86752 11.02148,2.70898 7.73386,2.94633 17.86008,8.10192 27.34375,12.52149 9.48367,4.41956 18.32374,8.1043 24.58398,14.54882 6.26025,6.44452 9.94405,15.65436 11.96875,20.99219 2.0247,5.33783 2.39383,6.81252 -4.69531,4.69531 -7.08914,-2.1172 -21.63675,-7.82559 -33.33008,-15.1914 -11.69332,-7.36581 -20.53209,-16.39037 -27.4375,-23.66407 -6.9054,-7.27369 -11.87795,-12.79764 -11.69336,-15.1914 0.0692,-0.89766 0.86475,-1.35412 2.23829,-1.41992 z m -31.66797,10.10742 c 2.93155,-0.007 12.69096,4.3291 21.23633,8.99023 9.11504,4.97188 16.84855,10.31309 23.8457,17.40235 6.99715,7.08925 13.25879,15.92895 17.0332,22.37304 3.77441,6.4441 5.06376,10.49627 3.22266,11.69336 -1.8411,1.19709 -6.81403,-0.46025 -12.79883,-3.95898 -5.9848,-3.49873 -12.98205,-8.83839 -20.25586,-16.48047 -7.27381,-7.64209 -14.82327,-17.5859 -21.72852,-25.50391 -6.90524,-7.918 -13.16473,-13.81067 -11.04687,-14.45507 0.13237,-0.0403 0.29675,-0.0601 0.49219,-0.0606 z m -298.16602,51.3457 c 0.89455,-0.004 1.81188,0.0725 2.67578,0.22852 1.72781,0.31202 3.24293,0.93773 4.38281,1.68164 1.13989,0.74392 1.9071,1.60706 2.61524,2.69922 0.0685,0.10574 0.13736,0.21705 0.20508,0.32617 -0.0544,0.004 -0.1118,0.0139 -0.16602,0.0176 -3.05517,0.20379 -5.77224,-0.20331 -8.48828,-1.08594 -2.23015,-0.72474 -4.46129,-1.76053 -6.72852,-2.22461 0.76588,-0.58426 1.73116,-1.09773 2.97266,-1.37891 0.76763,-0.17386 1.63671,-0.2592 2.53125,-0.26367 z m 25.66211,1.47656 c 0.37219,0.017 0.75079,0.0669 1.13477,0.15821 1.53591,0.36515 3.13318,1.38543 4.3125,2.68359 0.30841,0.33949 0.58573,0.69708 0.84765,1.0625 -0.26436,0.4449 -0.51482,0.90496 -0.73437,1.37695 -1.01888,-0.18793 -1.96819,-0.5516 -3.24414,-0.99023 -2.09241,-0.71928 -5.06973,-1.62121 -8.19727,-1.74805 0.95934,-0.90529 1.75159,-1.53842 2.86719,-1.99609 0.85326,-0.35005 1.89708,-0.5979 3.01367,-0.54688 z"
       style="fill:#1a1a1a;fill-opacity:1;stroke:none;stroke-width:1.04295599px;stroke-linecap:butt;stroke-linejoin:miter;stroke-opacity:1" />
  </g>
</svg>
